<svg width="1024" height="1024" viewBox="0 0 1024 1024" fill="none" xmlns="http://www.w3.org/2000/svg">
<rect width="1024" height="1024" fill="white"/>
<g clip-path="url(#clip0_1390_1762)">
<path d="M893.516 180.005H130.813C124.626 179.882 118.642 182.219 114.177 186.505C109.712 190.79 107.131 196.673 107 202.861V820.143C107.131 826.332 109.711 832.217 114.176 836.505C118.64 840.794 124.624 843.136 130.813 843.017H893.516C899.709 843.141 905.697 840.801 910.166 836.512C914.634 832.223 917.217 826.336 917.348 820.143V202.861C917.218 196.67 914.634 190.784 910.165 186.498C905.696 182.212 899.707 179.877 893.516 180.005Z" fill="#916EE4"/>
<path d="M420.236 355.409C420.236 354.441 420.427 353.483 420.797 352.59C421.167 351.696 421.71 350.884 422.394 350.2C423.078 349.516 423.89 348.973 424.784 348.603C425.678 348.233 426.636 348.042 427.603 348.042H551.255C552.222 348.042 553.18 348.233 554.074 348.603C554.968 348.973 555.78 349.516 556.464 350.2C557.148 350.884 557.691 351.696 558.061 352.59C558.431 353.483 558.622 354.441 558.622 355.409V381.193C558.617 383.199 557.818 385.121 556.399 386.54C554.981 387.958 553.058 388.757 551.052 388.762H488.711C487.216 388.774 485.738 389.08 484.362 389.664C482.986 390.247 481.738 391.095 480.69 392.161C479.641 393.226 478.813 394.488 478.252 395.873C477.691 397.259 477.409 398.741 477.421 400.236C477.402 403.251 478.579 406.151 480.696 408.299C482.813 410.447 485.695 411.667 488.711 411.691H538.326C540.28 411.691 542.154 412.467 543.535 413.849C544.917 415.23 545.693 417.104 545.693 419.058V444.842C545.688 446.848 544.889 448.77 543.471 450.189C542.052 451.607 540.13 452.406 538.124 452.411H488.656C487.162 452.421 485.685 452.725 484.308 453.306C482.932 453.887 481.684 454.734 480.635 455.798C479.587 456.862 478.758 458.122 478.197 459.507C477.636 460.891 477.354 462.373 477.366 463.867V465.708C477.354 467.203 477.636 468.685 478.197 470.071C478.758 471.456 479.586 472.718 480.634 473.783C481.683 474.849 482.931 475.697 484.307 476.28C485.683 476.864 487.161 477.17 488.656 477.182H554.828C555.795 477.182 556.753 477.373 557.647 477.743C558.541 478.113 559.353 478.656 560.037 479.34C560.721 480.024 561.264 480.836 561.634 481.73C562.004 482.623 562.195 483.581 562.195 484.549V510.333C562.185 512.337 561.384 514.257 559.967 515.674C558.55 517.092 556.63 517.892 554.625 517.902H427.419C426.452 517.902 425.494 517.711 424.6 517.341C423.706 516.971 422.894 516.428 422.21 515.744C421.526 515.06 420.983 514.248 420.613 513.354C420.243 512.461 420.052 511.503 420.052 510.535L420.236 355.409Z" fill="white"/>
<path d="M228.81 353.991C228.815 351.926 229.637 349.947 231.097 348.487C232.557 347.027 234.536 346.205 236.6 346.2H275.884C277.153 346.203 278.402 346.519 279.52 347.119C280.638 347.72 281.59 348.587 282.293 349.644L338.502 434.804L336.66 407.621V354.009C336.66 352.986 336.862 351.973 337.253 351.028C337.645 350.083 338.218 349.224 338.942 348.5C339.665 347.777 340.524 347.203 341.469 346.812C342.414 346.42 343.427 346.219 344.45 346.219H383.863C384.866 346.219 385.86 346.416 386.788 346.8C387.715 347.185 388.558 347.747 389.267 348.457C389.977 349.167 390.54 350.01 390.924 350.937C391.308 351.864 391.506 352.858 391.506 353.862V508.564C391.501 510.629 390.679 512.608 389.219 514.068C387.759 515.528 385.78 516.35 383.715 516.355H342.609C341.345 516.352 340.102 516.035 338.992 515.43C337.883 514.825 336.942 513.953 336.255 512.892L280.009 425.633L281.851 453.074V508.564C281.851 510.631 281.03 512.612 279.569 514.073C278.108 515.534 276.127 516.355 274.061 516.355H236.453C234.431 516.345 232.494 515.536 231.066 514.104C229.638 512.673 228.833 510.734 228.828 508.712L228.81 353.991Z" fill="white"/>
<path d="M797.969 697.357C797.969 709.586 791.468 719.458 783.456 719.458H232.07C224.059 719.458 217.557 709.531 217.557 697.357V667.982C217.557 655.753 224.059 645.882 232.07 645.882H783.456C791.468 645.882 797.969 655.79 797.969 667.982V697.357Z" fill="white"/>
<path d="M765.131 516.815C764.922 517.843 764.368 518.768 763.56 519.438C762.753 520.108 761.742 520.482 760.693 520.498H713.73C712.685 520.48 711.679 520.105 710.878 519.434C710.077 518.764 709.53 517.84 709.328 516.815L694.429 443.368C694.262 442.309 693.72 441.346 692.901 440.654C692.082 439.963 691.042 439.59 689.97 439.603C688.898 439.617 687.867 440.016 687.066 440.728C686.265 441.439 685.747 442.416 685.607 443.479L672.457 516.631C672.284 517.706 671.736 518.686 670.91 519.397C670.085 520.108 669.034 520.505 667.945 520.517H621.018C620.005 520.503 619.025 520.151 618.235 519.518C617.444 518.884 616.887 518.004 616.654 517.018L576.136 352.333C575.956 351.638 575.935 350.911 576.074 350.206C576.214 349.502 576.511 348.838 576.943 348.265C577.375 347.691 577.931 347.222 578.569 346.893C579.208 346.565 579.912 346.384 580.63 346.366H626.359C627.452 346.379 628.504 346.778 629.33 347.492C630.156 348.207 630.702 349.191 630.872 350.27L643.984 425.227C644.138 426.292 644.671 427.266 645.484 427.97C646.298 428.675 647.338 429.062 648.414 429.062C649.49 429.062 650.53 428.675 651.343 427.97C652.157 427.266 652.689 426.292 652.843 425.227L664.28 350.473C664.43 349.372 664.969 348.362 665.801 347.625C666.632 346.888 667.7 346.474 668.811 346.458H711.704C712.798 346.476 713.85 346.883 714.673 347.604C715.496 348.326 716.036 349.316 716.198 350.399L729.089 426.222C729.243 427.287 729.776 428.261 730.589 428.965C731.403 429.669 732.443 430.057 733.519 430.057C734.595 430.057 735.635 429.669 736.448 428.965C737.262 428.261 737.794 427.287 737.948 426.222L751.135 348.447C751.296 347.383 751.832 346.411 752.645 345.705C753.459 345 754.497 344.607 755.573 344.598H798.153C798.862 344.613 799.557 344.788 800.189 345.108C800.821 345.428 801.373 345.886 801.804 346.448C802.236 347.01 802.535 347.662 802.681 348.356C802.827 349.049 802.815 349.766 802.647 350.454L765.131 516.815Z" fill="white"/>
</g>
<defs>
<clipPath id="clip0_1390_1762">
<rect width="810" height="663.022" fill="white" transform="translate(107 180)"/>
</clipPath>
</defs>
</svg>
