<svg width="512" height="512" viewBox="0 0 512 512" fill="none" xmlns="http://www.w3.org/2000/svg">
<path d="M512 0H0V512H512V0Z" fill="white"/>
<path d="M87.657 261.486C79.3865 261.486 68.2289 259.567 60.6662 263.482C47.2728 270.415 48.2911 288.884 60.6728 296.175C72.7569 303.292 95.915 298.56 109.608 298.746C118.474 298.866 128.525 301.189 131.97 310.618C135.313 319.77 128.039 329.585 119.738 332.785C107.444 337.527 93.0798 331.883 89.7494 349.541C89.3415 351.703 89.5232 354.165 89.9332 356.312C94.6142 380.82 120.749 364.318 134.213 374.267C142.626 380.483 148.251 391.026 155.35 398.644C172.791 417.362 195.342 434.182 219.364 443.212C228.906 446.8 236.634 449 248.069 449C260.139 446.875 271.118 440.134 281.866 434.727C321.199 414.935 354.234 382.21 374.25 342.766C381.465 328.548 388.076 313.671 393.683 298.739C396.145 292.184 396.567 284.83 399.706 278.519C403.399 271.094 409.895 272.408 416.773 270.445C424.856 268.139 429.638 261.354 430.065 253.019C431.52 224.612 380.347 243.601 387.331 212.381C392.429 189.589 424.523 196.293 440.564 195.446C447.318 193.753 462.806 192.906 460.827 178.513C457.45 153.96 429.295 161.58 413.547 161.58C413.547 149.839 415.565 126.556 404.862 118.81C399.674 115.057 392.566 115.862 386.531 115.86C376.246 115.856 366.337 115.243 356.137 113.897C330.743 110.547 305.909 101.315 283.529 89.1179C274.792 84.356 266.135 78.3931 258.201 72.3831C253.755 69.0154 249.035 63.8354 243.004 64.004C233.134 64.2802 222.419 77.0885 214.298 82.138C196.377 93.2817 177.082 101.088 156.888 106.9C143.314 110.808 127.188 115.551 112.985 115.557C102.33 115.561 90.0677 111.923 81.7705 121.41C74.242 130.018 77.5257 147.593 77.5257 158.193C77.5257 193.205 81.2025 227.132 87.657 261.486Z" fill="#8B79F8"/>
<path d="M238.253 165.802C220.998 169.456 211.205 185.687 208.461 202.08C207.351 208.703 209.173 215.849 207.08 222.305C205.044 228.588 199.76 232.675 195.917 237.764C191.177 244.038 188.402 251.677 187.019 259.39C179.549 301.064 214.195 339.484 256.621 330.749C293.976 323.058 312.722 286.856 302.009 250.962C298.953 240.722 289.617 235.234 286.119 225.678C283.082 217.382 286.028 207.366 284.307 198.708C280.084 177.478 260.321 161.131 238.253 165.802Z" fill="#FFFEFF"/>
<path d="M223.27 216.275C231.433 214.56 239.587 212.813 247.88 212.813C255.345 212.813 262.809 214.495 269.714 216.275C269.714 209.118 271.149 200.184 267.592 193.71C257.788 175.859 234.307 174.963 225.15 193.836C221.949 200.437 223.27 209.122 223.27 216.275ZM241.589 259.508C227.515 263.538 234.024 286.329 248.002 282.587C263.88 278.336 257.947 254.825 241.589 259.508Z" fill="#8B79F8"/>
</svg>
