<svg width="1024" height="1024" viewBox="0 0 1024 1024" fill="none" xmlns="http://www.w3.org/2000/svg">
<rect width="1024" height="1024" fill="white"/>
<path d="M428.41 377.452C428.41 405.622 433.959 433.516 444.739 459.542C455.519 485.568 471.32 509.216 491.239 529.135C511.158 549.054 534.806 564.855 560.832 575.635C586.858 586.415 614.752 591.964 642.922 591.964C671.092 591.964 698.986 586.415 725.012 575.635C751.038 564.855 774.685 549.054 794.605 529.135C814.524 509.216 830.325 485.568 841.105 459.542C851.885 433.516 857.434 405.622 857.434 377.452C857.434 349.282 851.885 321.388 841.105 295.362C830.325 269.336 814.524 245.689 794.605 225.769C774.685 205.85 751.038 190.049 725.012 179.269C698.986 168.489 671.092 162.94 642.922 162.94C614.752 162.94 586.858 168.489 560.832 179.269C534.806 190.049 511.158 205.85 491.239 225.769C471.32 245.689 455.519 269.336 444.739 295.362C433.959 321.388 428.41 349.282 428.41 377.452Z" fill="#FFD629"/>
<path opacity="0.1" d="M845.867 307.808C845.129 307.316 857.434 345.87 857.434 377.452C857.434 495.906 761.375 591.964 642.922 591.964C623.152 591.964 603.957 589.257 585.746 584.253C554.492 575.64 526.191 560.136 502.402 539.546C502.402 539.546 704.855 440.206 845.867 307.808Z" fill="#FF9A2C"/>
<path opacity="0.2" d="M855.793 354.073C863.176 473.429 788.855 581.3 670.402 581.3C650.633 581.3 581.234 578.019 585.746 559.644C585.828 559.398 668.187 519.777 736.027 467.277C803.867 414.777 855.547 350.628 855.793 354.073Z" fill="#FF9A2C"/>
<path opacity="0.24" d="M809.855 240.871C792.957 219.378 769.004 201.578 739.719 186.156C694.684 162.531 641.609 156.871 585.91 171.144C509.211 190.831 440.469 269.746 430.871 348.331C427.672 374.828 425.457 400.339 430.953 424.292C431.117 424.867 431.609 425.195 432.184 425.195C443.504 423.964 549.324 410.757 639.969 368.347C763.016 310.761 816.746 249.73 809.855 240.871Z" fill="#FCE99A"/>
<path opacity="0.2" d="M493.094 256.928C494.363 265.974 498.687 274.502 505.82 282.024C512.953 289.546 522.755 295.914 534.666 300.766C546.577 305.618 560.364 308.858 575.24 310.301C590.115 311.744 605.788 311.362 621.364 309.176C636.94 306.991 652.113 303.045 666.017 297.564C679.921 292.083 692.284 285.174 702.4 277.232C712.516 269.289 720.186 260.469 724.974 251.275C729.761 242.08 731.572 232.692 730.302 223.645C729.033 214.599 724.709 206.071 717.576 198.549C710.443 191.027 700.641 184.659 688.73 179.807C676.819 174.955 663.032 171.715 648.157 170.272C633.281 168.829 617.608 169.211 602.032 171.397C586.457 173.582 571.284 177.528 557.379 183.009C543.475 188.49 531.112 195.399 520.996 203.341C510.88 211.284 503.21 220.104 498.422 229.298C493.635 238.493 491.824 247.881 493.094 256.928Z" fill="#F9F2D7"/>
<path d="M150.652 591.636C150.652 663.083 179.034 731.603 229.555 782.124C280.076 832.644 348.596 861.026 420.043 861.026C491.49 861.026 560.01 832.644 610.531 782.124C661.051 731.603 689.434 663.083 689.434 591.636C689.434 520.189 661.051 451.668 610.531 401.148C560.01 350.627 491.49 322.245 420.043 322.245C348.596 322.245 280.076 350.627 229.555 401.148C179.034 451.668 150.652 520.189 150.652 591.636Z" fill="#EEF1FF"/>
<path d="M493.297 669.894C493.297 694.983 498.239 719.826 507.84 743.006C517.441 766.185 531.514 787.246 549.254 804.987C566.995 822.728 588.056 836.8 611.236 846.401C634.415 856.003 659.258 860.944 684.348 860.944C709.437 860.944 734.28 856.003 757.46 846.401C780.639 836.8 801.7 822.728 819.441 804.987C837.182 787.246 851.254 766.185 860.856 743.006C870.457 719.826 875.398 694.983 875.398 669.894C875.398 619.224 855.27 570.629 819.441 534.8C783.612 498.971 735.017 478.843 684.348 478.843C633.678 478.843 585.083 498.971 549.254 534.8C513.425 570.629 493.297 619.224 493.297 669.894Z" fill="#EEF1FF"/>
<path d="M663.922 860.944H421.93C401.668 860.944 385.098 844.374 385.098 824.112V795.237C385.098 774.976 401.668 758.405 421.93 758.405H663.922C684.184 758.405 700.754 774.976 700.754 795.237V824.194C700.672 844.456 684.102 860.944 663.922 860.944Z" fill="#EEF1FF"/>
<path opacity="0.2" d="M658.098 715.011C757.109 692.862 526.52 861.108 418.402 861.108C269.598 861.108 149.012 740.522 149.012 591.718L264.676 669.894C340.063 686.71 394.039 711.319 469.426 694.503C469.426 694.503 610.52 725.675 658.098 715.011Z" fill="#CAD0E8"/>
<path opacity="0.2" d="M873.758 670.14C873.758 775.632 788.199 861.19 682.707 861.19C577.215 861.19 479.27 800.077 479.27 694.503L600.676 703.526C657.934 717.554 712.566 709.515 769.824 695.487L873.758 670.14Z" fill="#CAD0E8"/>
<path opacity="0.2" d="M662.199 861.108H420.207C399.945 861.108 383.375 844.538 383.375 824.276V795.319C383.375 775.058 399.945 758.487 420.207 758.487H662.199C682.461 758.487 699.031 775.058 699.031 795.319V824.276C699.031 844.62 682.461 861.108 662.199 861.108Z" fill="#CAD0E8"/>
<path opacity="0.2" d="M219.127 456.119C221.38 469.176 228.04 481.342 238.726 491.92C249.411 502.499 263.914 511.283 281.405 517.772C298.897 524.261 319.035 528.327 340.669 529.739C362.303 531.15 385.01 529.879 407.494 525.998C429.977 522.117 451.796 515.702 471.705 507.119C491.614 498.536 509.223 487.954 523.527 475.977C537.831 463.999 548.549 450.861 555.07 437.312C561.591 423.763 563.786 410.069 561.531 397.012C559.278 383.955 552.619 371.789 541.933 361.211C531.247 350.632 516.745 341.848 499.253 335.359C481.762 328.87 461.624 324.804 439.99 323.392C418.355 321.981 395.648 323.252 373.165 327.133C350.682 331.014 328.863 337.429 308.954 346.012C289.045 354.595 271.436 365.177 257.132 377.154C242.828 389.132 232.11 402.27 225.589 415.819C219.068 429.367 216.872 443.061 219.127 456.119Z" fill="white"/>
</svg>
